<?xml version="1.0" encoding="UTF-8"?><svg id="Layer_1" xmlns="http://www.w3.org/2000/svg" viewBox="0 0 200 200"><defs><style>.cls-1{fill:#bc1a20;stroke:#000;stroke-miterlimit:10;stroke-width:3px;}</style></defs><path class="cls-1" d="M98.1,9.13C49.75,9.13,10.56,48.32,10.56,96.67s39.19,87.53,87.54,87.53,87.53-39.19,87.53-87.53S146.45,9.13,98.1,9.13ZM35.21,114.4c-1.59-5.64-2.45-11.58-2.45-17.73,0-35.94,29.14-65.08,65.08-65.08,22.14,0,41.7,11.06,53.45,27.96L35.21,114.4Zm62.63,47.34c-22.06,0-41.57-10.98-53.34-27.78l116.01-54.82c1.56,5.57,2.4,11.46,2.4,17.53,0,35.94-29.13,65.07-65.07,65.07Z"/></svg>