<?xml version="1.0" encoding="UTF-8"?><svg id="Layer_1" xmlns="http://www.w3.org/2000/svg" viewBox="0 0 300 150"><defs><style>.cls-1{fill:none;stroke:#ff8712;stroke-miterlimit:10;stroke-width:3px;}.cls-2{fill:#f4a400;}.cls-3{fill:#ff8712;}.cls-4{fill:#d26925;}</style></defs><path class="cls-4" d="M277.26,5c-.82,10.86-13.28,27.19-62.23,43.37-48.96,16.17-39.56,37.8-39.56,37.8,0,0-.29-.88,.6-2.23,.91-1.33,5.47-6.79,18.25-5.36,19.03,2.13,35.77,9.77,52.98,6.47,22.81-4.38,15.8-25.58,15.8-25.58-3.19,6.47-15.43,13.42-51.8,11.29-13.73-.8-22.14,.92-27.3,3.38,3.05-2.17,7.17-4.22,12.76-5.72,26.14-7.01,52.17-5,73.08-18.77,27.73-18.25,7.41-44.66,7.41-44.66Z"/><path class="cls-4" d="M20.78,10.59c1.62,10.77,15.25,26.14,65.27,38.64,50.02,12.51,42.25,34.77,42.25,34.77,0,0,.22-.9-.76-2.18-1.01-1.26-5.96-6.36-18.59-3.99-18.82,3.53-34.95,12.4-52.36,10.38-23.08-2.68-17.65-24.34-17.65-24.34,3.66,6.21,16.38,12.24,52.49,7.43,13.64-1.82,22.15-.72,27.47,1.35-3.2-1.94-7.47-3.68-13.14-4.76-26.59-5.06-52.39-1.12-74.27-13.31C2.47,38.43,20.78,10.59,20.78,10.59Z"/><circle class="cls-2" cx="150.85" cy="107.31" r="33.69"/><path class="cls-1" d="M183.93,101.76c-1.93,.74-4.87,.82-8.01,.82-9.64,0-17.46-7.82-17.46-17.46,0-3.63,1.55-6.62,3.01-9.8"/><path class="cls-1" d="M143.25,74.64c1.75,3.86,4.52,5.66,4.52,10.48,0,9.64-7.82,17.46-17.46,17.46-4.57,0-9.31-2.08-12.12-2.88"/><path class="cls-1" d="M118.59,116.96c3.23-.64,6.44-4.53,11.01-4.53,8.78,0,15.9,5.74,15.9,12.82,0,5.1-8.08,9.4-9.25,12.25"/><path class="cls-1" d="M166.26,137.1c-1.67-4.37-9.25-6.81-9.25-11.84,0-7.44,7.47-13.46,16.69-13.46,3.89,0,6.5,2.8,9.81,3.52"/><path class="cls-3" d="M122.01,123.3c4.9-1.51,9.39-4.14,13.09-7.69,1.16-1.12-.61-2.88-1.77-1.77-3.38,3.26-7.5,5.67-11.98,7.05-1.53,.47-.88,2.89,.66,2.41h0Z"/><path class="cls-3" d="M126.01,128.93c2.53-1.72,4.98-3.56,7.34-5.5,1.15-.95,2.28-1.93,3.39-2.93,1.05-.95,2.23-1.91,2.81-3.24,.27-.62,.18-1.34-.45-1.71-.53-.31-1.44-.17-1.71,.45-.51,1.17-1.58,1.98-2.51,2.82-1.08,.97-2.18,1.92-3.3,2.85-2.2,1.81-4.48,3.51-6.83,5.11-1.32,.9-.07,3.07,1.26,2.16h0Z"/><path class="cls-3" d="M130.94,133.86c5.2-3.21,10.69-7.01,13.38-12.71,.29-.61,.17-1.35-.45-1.71-.54-.32-1.42-.16-1.71,.45-2.51,5.33-7.63,8.81-12.48,11.81-1.37,.84-.11,3.01,1.26,2.16h0Z"/><path class="cls-3" d="M180.44,119.99c-5.28,.38-10.65-2.6-14.12-6.41-1.08-1.19-2.85,.58-1.77,1.77,3.88,4.26,10,7.57,15.89,7.15,1.6-.11,1.61-2.62,0-2.5h0Z"/><path class="cls-3" d="M176.33,126.57c-2.95,.22-6.04-.86-8.56-2.34s-4.44-3.94-5.34-6.76c-.48-1.53-2.9-.88-2.41,.66,1.07,3.37,3.28,6.31,6.31,8.15s6.59,3.04,10,2.79c1.59-.12,1.61-2.62,0-2.5h0Z"/><path class="cls-3" d="M172.14,131.17c-1.19-.47-2.26-1.23-3.35-1.88-1.16-.69-2.4-1.25-3.54-1.99-2.31-1.5-4.27-3.61-4.82-6.38-.13-.66-.92-1.04-1.54-.87-.69,.19-1,.87-.87,1.54,.64,3.25,2.94,5.82,5.61,7.64,1.24,.85,2.61,1.46,3.9,2.23s2.54,1.58,3.95,2.14c.63,.25,1.37-.27,1.54-.87,.19-.71-.24-1.29-.87-1.54h0Z"/></svg>