<?xml version="1.0" encoding="UTF-8"?><svg id="Layer_3" xmlns="http://www.w3.org/2000/svg" viewBox="0 0 200 200"><defs><style>.cls-1,.cls-2,.cls-3,.cls-4,.cls-5,.cls-6{stroke-miterlimit:10;}.cls-1,.cls-2,.cls-3,.cls-4,.cls-6{stroke:#000;}.cls-7{fill:#ffe72e;}.cls-2{fill:#ddd;}.cls-2,.cls-3{stroke-width:4px;}.cls-3{fill:#34721d;}.cls-4{fill:#fff;}.cls-5{stroke:#7f0003;}.cls-5,.cls-6{fill:none;stroke-width:2px;}</style></defs><path class="cls-5" d="M190.01,46.24l2.64,1.44c.76,.26,1.44,.7,2.01,1.29l.88,.91"/><path class="cls-4" d="M47.21,139.65l5.53,17.46-5.53-17.46Z"/><path class="cls-3" d="M98.42,169.45s29.65-2.18,36.7-10.29c28.58-32.9-30.68-17.34-30.68-17.34l39.43-15.44c2.57-6.04,38.72,24.58,7.74,41.27-36.04,19.42-42.24,11.83-47.76,13.37-5.63,1.57-31.57-7.65-5.44-11.56Z"/><path class="cls-3" d="M29.95,57.52S63.56-.48,139.46,25.43l27.22-.19c3.08-.53,6.2,.38,11.34,1.9,1.18,.35,2.22,1.06,2.97,2.03l9.9,12.8c1.22,1.57-1.35,7.91-6.77,8.68l-21.44,3.06c-2.16,.31-4.36-.16-7.78-2.32l-15.67-9.87c-1.26-.8-4.54-1.8-7.91-1.91l-29.91-.95c-6.23-.2-12.45,.64-18.41,2.48L29.95,57.52Z"/><path class="cls-2" d="M156.54,94.18c0,21.32-14.67,39.93-36.45,49.86v12.5c0,5.17-4.47,9.39-9.93,9.39H55.03c-5.47,0-9.95-4.22-9.95-9.39v-13.73c-20.36-10.18-33.89-28.14-33.89-48.62,0-31.76,32.53-57.5,72.67-57.5s72.67,25.74,72.67,57.5Z"/><path class="cls-1" d="M63.69,107.13c0,6.05-5.39,6.06-10.95,3.69-5.53-2.37-10.95-4.9-10.95-10.95s4.9-7.04,10.95-7.04,10.95,8.26,10.95,14.31Z"/><path class="cls-1" d="M99.62,107.13c0,6.05,5.39,6.06,10.95,3.69,5.53-2.37,10.95-4.9,10.95-10.95,0-6.05-4.9-7.04-10.95-7.04s-10.95,8.26-10.95,14.31Z"/><path class="cls-1" d="M87.5,127.8c-1.81,1.24-2.89-.33-3.29-2.44-.4-2.1-.73-4.2,1.08-5.44s3.09-.01,4.3,1.75-.27,4.89-2.08,6.13Z"/><path class="cls-1" d="M77.05,127.8c1.81,1.24,2.89-.33,3.29-2.44s.73-4.2-1.08-5.44-3.09-.01-4.3,1.75,.27,4.89,2.08,6.13Z"/><line class="cls-6" x1="63.69" y1="165.92" x2="63.69" y2="145.58"/><line class="cls-6" x1="80.66" y1="166.13" x2="80.66" y2="145.58"/><line class="cls-6" x1="97.76" y1="165.92" x2="97.76" y2="145.58"/><ellipse class="cls-7" cx="171.97" cy="42.65" rx="2.11" ry=".86" transform="translate(-4.74 55.49) rotate(-18.09)"/><ellipse class="cls-7" cx="177.55" cy="34.49" rx=".62" ry="1.52" transform="translate(-1.94 56.82) rotate(-18.09)"/></svg>