<?xml version="1.0" encoding="UTF-8"?><svg id="Layer_2" xmlns="http://www.w3.org/2000/svg" xmlns:xlink="http://www.w3.org/1999/xlink" viewBox="0 0 200 200"><defs><style>.cls-1{font-family:Neonoir-Bold, Neonoir;font-size:27.91px;}.cls-1,.cls-2,.cls-3{stroke:#000;}.cls-2{fill:url(#linear-gradient);stroke-width:4px;}.cls-2,.cls-3{stroke-miterlimit:10;}.cls-3{fill:#ffe4bf;stroke-width:3px;}</style><linearGradient id="linear-gradient" x1="70.57" y1="32.09" x2="147.3" y2="139.42" gradientUnits="userSpaceOnUse"><stop offset="0" stop-color="#ffdb8f"/><stop offset="1" stop-color="#ffbf75"/></linearGradient></defs><path class="cls-2" d="M100,189.54s-68.68-26.81-75.23-49.12C18.23,118.11,15.36,15.57,15.36,15.57c0,0,40.11,43.8,83.34,0,0,0,52.55,40.93,84.48,0,0,0,5.51,79.13-4.91,123.62-6.14,26.2-78.27,50.35-78.27,50.35Z"/><path class="cls-3" d="M183.93,98.38c-29.05,9.02-166.81-32.58-166.81-32.58l1.15,24.75s80.12,41.99,162.42,35.93l3.23-28.11Z"/><text class="cls-1" transform="translate(43.35 98.77) rotate(9.93) scale(1.13 1)"><tspan x="0" y="0">Prefect</tspan></text></svg>